<?xml version="1.0" encoding="UTF-8"?>
<!DOCTYPE svg PUBLIC "-//W3C//DTD SVG 1.0//EN" "http://www.w3.org/TR/2001/REC-SVG-20010904/DTD/svg10.dtd">
<!-- Creator: CorelDRAW X8 -->
<svg xmlns="http://www.w3.org/2000/svg" xml:space="preserve" width="512px" height="512px" version="1.0" style="shape-rendering:geometricPrecision; text-rendering:geometricPrecision; image-rendering:optimizeQuality; fill-rule:evenodd; clip-rule:evenodd"
viewBox="0 0 7252806 7252806"
 xmlns:xlink="http://www.w3.org/1999/xlink">
 <defs>
  <style type="text/css">
   <![CDATA[
    .str0 {stroke:#004085;stroke-width:141645}
    .str1 {stroke:#004085;stroke-width:141645;stroke-linecap:round}
    .str2 {stroke:#004085;stroke-width:141645;stroke-linecap:round;stroke-linejoin:round}
    .fil3 {fill:none}
    .fil6 {fill:#004085}
    .fil0 {fill:#007BFF}
    .fil1 {fill:#0B70DB}
    .fil2 {fill:#268FFF}
    .fil4 {fill:#E9EFF5}
    .fil5 {fill:#004085;fill-rule:nonzero}
   ]]>
  </style>
     <clipPath id="id0">
      <path d="M1536027 1294113l17 0c3848,-1858 7679,-3631 11561,-5388l16 0 11645 -5136 17 0 11728 -4902 17 -17c3915,-1590 7864,-3146 11795,-4651l34 -17c7897,-3028 15844,-5889 23808,-8600l34 -17 11979 -3915c229015,-72914 490303,-17032 667452,168281 344475,360404 352389,468386 579964,495289 144389,-150 358413,-4149 679649,-4149l96672 0 96672 0c1127889,0 2050690,922817 2050690,2050690l0 17c0,687663 -343036,1299082 -866434,1671615 14205,106058 -3948,215546 -54175,312503 -162090,77247 -355049,66673 -508272,-30518 -196339,62959 -405276,97090 -621809,97090l-987399 0c-691143,0 -1254912,-666799 -1254912,-1357941l299352 0 296005 0 1467547 0 0 -17 -1763552 0 0 -109203c0,-302531 247535,-550067 550083,-550067l1594886 0c409292,-669 743996,-335725 743996,-745167l0 0c0,-409860 -335323,-745201 -745184,-745201 -1471160,0 -1056749,-133480 -1653779,491140 -198882,208067 -503856,252990 -750086,135655 -125500,-242198 -89545,-547322 110592,-754218 72930,-75407 159647,-129432 252304,-161990l-101 -7479 0 0 101 -7496 -4334 -1522 0 -17 -4333 -1572 -4333 -1590 0 -17 -4300 -1639 -4317 -1657 0 -16 -4283 -1690 -4283 -1724 0 -16 -4266 -1740 -17 0 -4250 -1791 0 -16 -4250 -1824 -16 0 -4233 -1857 -17 0 -4216 -1874 -4216 -1924 -4217 -1958 0 0 -4199 -1974 -4166 -2008 -17 -16 -4166 -2041 -17 0 -4149 -2075 -4149 -2108 -17 -17 -4133 -2125 -4115 -2158 -17 -17 -4099 -2192 -4116 -2242 -4082 -2258 -17 0 -4049 -2292 -17 0 -4065 -2343 -4049 -2342 0 -17 -4016 -2376 -16 0 -4016 -2426 -17 0 -3998 -2442 -17 -17 -3965 -2476 -17 0 -3965 -2527 -17 0 -3965 -2526 0 -17 -3932 -2576 -3932 -2610 -17 0 -3915 -2627 0 -17 -3898 -2660 -17 0 -3881 -2711 -3865 -2743 -17 0 -3865 -2761 -3831 -2794 -17 0 -3815 -2828 -3814 -2861 0 -16 -3798 -2878 -3782 -2928 -3747 -2962 -3748 -2978 -3731 -3011 -3698 -3062 -3697 -3079 -3681 -3095 -3647 -3162 -3648 -3162 -3614 -3212 -3614 -3230 -3580 -3279 -3564 -3296 -3547 -3329 0 -17 -3513 -3346 -3514 -3397 -3497 -3430 -3480 -3446 0 -17 -3429 -3463 -3430 -3530 -9253 -9771 -9034 -9905 -8784 -10039 -8550 -10189 -8298 -10306c-2727,-3464 -5388,-6927 -8048,-10440l0 0c-2660,-3481 -5253,-7011 -7813,-10541 -2577,-3530 -5103,-7111 -7579,-10691 -2493,-3564 -4919,-7161 -7329,-10775l-16 0c-2410,-3631 -4785,-7261 -7094,-10909l-6860 -11009 -6626 -11092c-2175,-3731 -4283,-7462 -6374,-11210l-17 0 -6123 -11310 -17 0c-2008,-3765 -3965,-7596 -5889,-11394l-17 0 -5639 -11478 -5420 -11578 -5187 -11644 -4952 -11729 -4685 -11812c-1539,-3932 -3028,-7880 -4467,-11862l-17 0c-1456,-3965 -2844,-7947 -4216,-11946 -1372,-3982 -2711,-7981 -3982,-11996 -1305,-4016 -2543,-8048 -3748,-12063l-3514 -12114 -3262 -12180 -3028 -12214 -17 0c-987,-4082 -1874,-8164 -2777,-12263l-17 0 -2527 -12281 -16 0c-820,-4116 -1573,-8232 -2309,-12347l-17 0 -2058 -12365 -1840 -12397 -1590 -12432 -1355 -12447c-435,-4150 -803,-8299 -1138,-12465 -334,-4149 -619,-8315 -870,-12481l-652 -12499 -402 -12514 -167 -12498 50 -12499c50,-4166 184,-8332 318,-12498l552 -12498 787 -12481 1020 -12465 1238 -12448 1506 -12431 1740 -12397 1974 -12365c686,-4132 1422,-8248 2209,-12347 769,-4116 1589,-8215 2443,-12298l2677 -12263 16 0c920,-4083 1908,-8165 2911,-12214l3146 -12164 17 0 3379 -12130 17 0 3614 -12063 17 0c1238,-4015 2526,-7997 3865,-11996l0 0c1321,-3998 2693,-7964 4115,-11946l4334 -11879 16 0 4568 -11795 4802 -11729 17 0 5052 -11644 17 0 5270 -11578 17 0 5505 -11495 16 0 5756 -11393z"/>
     </clipPath>
     <clipPath id="id1">
      <path d="M3278431 4874204c-3162,-62323 -3714,-136090 -3999,-185815l-67 -24042 -1478237 0 -299352 0c0,691142 563769,1357941 1254912,1357941l987399 0c117368,0 232478,-9988 344592,-29162 -32424,-11963 -58257,-23189 -96990,-43317 -40790,-21214 -95852,-52301 -151449,-90263 -55581,-37946 -111680,-82769 -164081,-132644 -52402,-49875 -101073,-104820 -142666,-159665 -41577,-54827 -76042,-109588 -106192,-166959 -30132,-57354 -55982,-117334 -76779,-178102 -20813,-60767 -36607,-122320 -47399,-178553 -10774,-56217 -16530,-107079 -19692,-169419z"/>
     </clipPath>
 </defs>
 <g id="Layer_x0020_1">
  <metadata id="CorelCorpID_0Corel-Layer"/>
  <g id="_2339096497456">
   <path class="fil0" d="M2823614 0l1605578 0c1552975,0 2823614,1270639 2823614,2823614l0 1605578c0,1552975 -1270639,2823614 -2823614,2823614l-1605578 0c-1552975,0 -2823614,-1270639 -2823614,-2823614l0 -1605578c0,-1552975 1270639,-2823614 2823614,-2823614z"/>
   <g>
    <path class="fil1" d="M1885940 2205586l3626386 3626403 -4300 -1622 -3626386 -3626404 4300 1623z"/>
    <path class="fil1" d="M1502565 1818631l3626403 3626403 -34 0 -3626386 -3626403 17 0z"/>
    <path class="fil1" d="M1894590 2208765l3626403 3626403 -4333 -1572 -4334 -1590 -3626386 -3626403 4333 1590 4317 1572z"/>
    <path class="fil1" d="M1898940 2210304l3626386 3626420 -4333 -1539 -3626403 -3626403 4350 1522z"/>
    <path class="fil1" d="M1877323 2202274l3626403 3626403 -4283 -1690 -3626403 -3626403 4283 1690z"/>
    <path class="fil1" d="M1881640 2203963l3626386 3626404 -4300 -1674 -3626403 -3626403 4317 1673z"/>
    <path class="fil1" d="M1868740 2198844l3626403 3626403 -4266 -1740 -3626386 -3626403 4249 1740z"/>
    <path class="fil1" d="M1873040 2200584l3626403 3626403 -4300 -1707 -3626403 -3626403 4300 1707z"/>
    <path class="fil1" d="M1864491 2197104l3626386 3626403 0 0 -3626403 -3626403 17 0z"/>
    <path class="fil1" d="M1860207 2195297l3626404 3626403 -4233 -1807 -3626404 -3626403 4233 1807z"/>
    <path class="fil1" d="M2286130 1429751l3626386 3626420 31337 33044 29464 31605 27673 30199 26033 28794 24444 27456 23005 26117 21634 24846 20361 23574 19208 22353 18170 21164 17216 19977 16346 18856 15610 17752 14941 16681 14422 15643 13970 14640 -3626403 -3626403 -13953 -14640 -14423 -15644 -14957 -16680 -15610 -17752 -16346 -18856 -17217 -19994 -18153 -21148 -19207 -22352 -20378 -23591 -21634 -24829 -22988 -26117 -24461 -27456 -26033 -28811 -27674 -30182 -29463 -31605 -31320 -33061z"/>
    <path class="fil1" d="M1864474 2197104l3626403 3626403 -4266 -1790 -3626404 -3626404 4267 1791z"/>
    <path class="fil1" d="M1855974 2193490l3626404 3626403 -34 0 -3626386 -3626403 16 0z"/>
    <path class="fil1" d="M1855958 2193490l3626386 3626403 -4216 -1874 -3626403 -3626403 4233 1874z"/>
    <path class="fil1" d="M1851725 2191616l3626403 3626403 -17 0 -3626386 -3626403 0 0z"/>
    <path class="fil1" d="M4685093 3259893l0 0z"/>
    <path class="fil1" d="M1851725 2191616l3626386 3626403 -4233 -1874 -3626386 -3626403 4233 1874z"/>
    <path class="fil1" d="M1847492 2189742l3626386 3626403 -4216 -1924 -3626386 -3626403 4216 1924z"/>
    <path class="fil1" d="M1839059 2185844l3626404 3626403 -4200 -1958 -3626403 -3626403 4199 1958z"/>
    <path class="fil1" d="M1843276 2187818l3626386 3626403 -4199 -1941 -3626404 -3626403 4217 1941z"/>
    <path class="fil1" d="M1834860 2183886l3626403 3626403 -4183 -2007 -3626386 -3626404 4166 2008z"/>
    <path class="fil1" d="M1830677 2181862l3626387 3626403 -4166 -2025 -3626387 -3626419 4166 2041z"/>
    <path class="fil1" d="M1826511 2179821l3626387 3626419 -17 0 -3626387 -3626419 17 0z"/>
    <path class="fil1" d="M1826494 2179821l3626387 3626419 -4133 -2091 -3626403 -3626403 4149 2075z"/>
    <path class="fil1" d="M1532932 1888734l3626403 3626403 -17 0 -3626386 -3626403 0 0z"/>
    <path class="fil1" d="M1818179 2175638l3626386 3626403 -4132 -2142 -3626387 -3626403 4133 2142z"/>
    <path class="fil1" d="M1538838 1900128l3626403 3626403 -17 0 -3626403 -3626403 17 0z"/>
    <path class="fil1" d="M1809931 2171338l3626386 3626403 -17 0 -3626403 -3626420 34 17z"/>
    <path class="fil1" d="M1809897 2171321l3626403 3626420 -4099 -2192 -3626403 -3626420 4099 2192z"/>
    <path class="fil1" d="M1805798 2169129l3626403 3626420 -4099 -2242 -3626403 -3626403 4099 2225z"/>
    <path class="fil1" d="M1544978 1911438l3626403 3626403 -17 0 -3626403 -3626403 17 0z"/>
    <path class="fil1" d="M1797617 2164629l3626403 3626420 -17 -17 -3626403 -3626403 17 0z"/>
    <path class="fil1" d="M1797600 2164629l3626403 3626403 -4066 -2292 -3626386 -3626403 4049 2292z"/>
    <path class="fil1" d="M1793551 2162337l3626386 3626403 -16 0 -3626387 -3626403 17 0z"/>
    <path class="fil1" d="M1793534 2162337l3626387 3626403 -4049 -2326 -3626403 -3626420 4065 2343z"/>
    <path class="fil1" d="M1785420 2157635l3626403 3626403 -4032 -2375 -3626387 -3626404 4016 2376z"/>
    <path class="fil1" d="M1789469 2159994l3626403 3626420 -4049 -2359 -3626403 -3626403 4049 2342z"/>
    <path class="fil1" d="M1781404 2155259l3626387 3626404 -17 0 -3626403 -3626404 33 0z"/>
    <path class="fil1" d="M1781371 2155259l3626403 3626404 -3999 -2426 -3626403 -3626404 3999 2426z"/>
    <path class="fil1" d="M1777372 2152833l3626403 3626404 -33 0 -3626387 -3626404 17 0z"/>
    <path class="fil1" d="M1777355 2152833l3626387 3626404 -3982 -2443 -3626387 -3626403 3982 2442z"/>
    <path class="fil1" d="M1773373 2150391l3626387 3626403 -17 -17 -3626403 -3626403 33 17z"/>
    <path class="fil1" d="M1773340 2150374l3626403 3626403 -3982 -2476 -3626403 -3626403 3982 2476z"/>
    <path class="fil1" d="M1769358 2147898l3626403 3626403 -17 0 -3626386 -3626403 0 0z"/>
    <path class="fil1" d="M1769358 2147898l3626386 3626403 -3965 -2510 -3626386 -3626420 3965 2527z"/>
    <path class="fil1" d="M1765393 2145371l3626386 3626420 0 0 -3626403 -3626420 17 0z"/>
    <path class="fil1" d="M1761411 2142828l3626403 3626403 -3949 -2576 -3626403 -3626403 3949 2576z"/>
    <path class="fil1" d="M1765376 2145371l3626403 3626420 -3965 -2543 -3626403 -3626403 3965 2526z"/>
    <path class="fil1" d="M1571948 1955658l3626387 3626403 -17 0 -3626386 -3626403 16 0z"/>
    <path class="fil1" d="M1753530 2137642l3626403 3626403 -16 0 -3626387 -3626403 0 0z"/>
    <path class="fil1" d="M1749615 2134998l3626387 3626403 -3899 -2660 -3626386 -3626403 3898 2660z"/>
    <path class="fil1" d="M1753530 2137642l3626387 3626403 -3915 -2627 -3626387 -3626403 3915 2627z"/>
    <path class="fil1" d="M1745717 2132338l3626386 3626403 -16 0 -3626387 -3626403 17 0z"/>
    <path class="fil1" d="M1745700 2132338l3626387 3626403 -3882 -2710 -3626386 -3626404 3881 2711z"/>
    <path class="fil1" d="M1741819 2129627l3626386 3626404 -3865 -2728 -3626386 -3626419 3865 2743z"/>
    <path class="fil1" d="M1737954 2126884l3626386 3626419 -17 0 -3626403 -3626419 34 0z"/>
    <path class="fil1" d="M1737920 2126884l3626403 3626419 -3848 -2760 -3626403 -3626420 3848 2761z"/>
    <path class="fil1" d="M1734072 2124123l3626403 3626420 -3831 -2811 -3626403 -3626403 3831 2794z"/>
    <path class="fil1" d="M1730241 2121329l3626403 3626403 -17 0 -3626403 -3626403 17 0z"/>
    <path class="fil1" d="M1730224 2121329l3626403 3626403 -3831 -2828 -3626387 -3626403 3815 2828z"/>
    <path class="fil1" d="M1722595 2115624l3626403 3626419 -3815 -2894 -3626386 -3626403 3798 2878z"/>
    <path class="fil1" d="M1594669 1987681l3626403 3626403 -17 0 -3626386 -3626403 0 0z"/>
    <path class="fil1" d="M1718797 2112746l3626386 3626403 -3764 -2928 -3626404 -3626403 3782 2928z"/>
    <path class="fil1" d="M1715015 2109818l3626404 3626403 -3765 -2961 -3626386 -3626404 3747 2962z"/>
    <path class="fil1" d="M1711268 2106856l3626386 3626404 -3731 -2979 -3626403 -3626403 3748 2978z"/>
    <path class="fil1" d="M1707520 2103878l3626403 3626403 -3731 -3011 -3626403 -3626403 3731 3011z"/>
    <path class="fil1" d="M1703789 2100867l3626403 3626403 -3714 -3062 -3626403 -3626403 3714 3062z"/>
    <path class="fil1" d="M1700075 2097805l3626403 3626403 -3698 -3078 -3626386 -3626404 3681 3079z"/>
    <path class="fil1" d="M1696394 2094726l3626386 3626404 -3681 -3096 -3626386 -3626403 3681 3095z"/>
    <path class="fil1" d="M1692713 2091631l3626386 3626403 -3647 -3145 -3626386 -3626420 3647 3162z"/>
    <path class="fil1" d="M1689066 2088469l3626386 3626420 -3647 -3196 -3626387 -3626403 3648 3179z"/>
    <path class="fil1" d="M1685418 2085290l3626387 3626403 -3614 -3195 -3626387 -3626403 3614 3195z"/>
    <path class="fil1" d="M1681804 2082095l3626387 3626403 -3597 -3229 -3626404 -3626404 3614 3230z"/>
    <path class="fil1" d="M1678190 2078865l3626404 3626404 -3598 -3263 -3626386 -3626420 3580 3279z"/>
    <path class="fil1" d="M1674610 2075586l3626386 3626420 -3563 -3313 -3626387 -3626403 3564 3296z"/>
    <path class="fil1" d="M1667499 2068961l3626403 3626403 -3530 -3346 -3626403 -3626420 3530 3363z"/>
    <path class="fil1" d="M1671046 2072290l3626387 3626403 -3531 -3312 -3626403 -3626420 3547 3329z"/>
    <path class="fil1" d="M1663969 2065598l3626403 3626420 -3497 -3397 -3626403 -3626420 3497 3397z"/>
    <path class="fil1" d="M1660472 2062201l3626403 3626420 -3513 -3446 -3626387 -3626404 3497 3430z"/>
    <path class="fil1" d="M1726409 2118501l3626387 3626403 -3798 -2861 -3626403 -3626403 3814 2861z"/>
    <path class="fil1" d="M1757462 2140252l3626403 3626403 -3932 -2610 -3626403 -3626403 3932 2610z"/>
    <path class="fil1" d="M1801699 2166904l3626403 3626403 -4082 -2258 -3626403 -3626420 4082 2275z"/>
    <path class="fil1" d="M1814046 2173496l3626387 3626403 -4116 -2158 -3626386 -3626403 4115 2158z"/>
    <path class="fil1" d="M1822345 2177746l3626403 3626403 -4166 -2091 -3626386 -3626420 4149 2108z"/>
    <path class="fil1" d="M5525243 5844203l0 0zm-3626404 -3626403l0 0z"/>
    <path class="fil1" d="M1480798 1746118l3626386 3626404 0 0 -3626403 -3626404 17 0z"/>
    <path class="fil1" d="M1478020 1733855l3626387 3626403 -17 0 -3626403 -3626403 33 0z"/>
    <path class="fil1" d="M1475460 1721574l3626387 3626403 0 0 -3626403 -3626403 16 0z"/>
    <path class="fil1" d="M1473135 1709227l3626403 3626403 -17 0 -3626386 -3626403 0 0z"/>
    <path class="fil1" d="M4466201 2733601l2627426 2627443c-98077,278321 -238668,537016 -413976,768189l-28577 -33 -51163 803 -45960 1807 -41293 2995 -37126 4316 -33512 5823 -30417 7495 -27840 9336 -25833 11310 -24327 13469 -23357 15794 -22921 18270 -23005 20931 -23625 23741 -24778 26703 -26469 29848 -28677 33127 -31421 36608 -34700 40238 -38481 44003 -42848 47984 -47701 52084 -53104 56367 -18940 19023 -19541 18070 -20111 17116 -20646 16162 -21132 15192 -21599 14271 -22052 13285 -22453 12347 -22838 11377 -23189 10440 -23507 9487 -23792 8516 -24059 7562 -24293 6609 -24478 5672 -24645 4701 -24795 3765 -24913 2794 -24979 1857 -25013 904 -25063 -67 -25030 -1004 -24979 -1974 -24913 -2912 -24829 -3848 -24678 -4818 -24528 -5773 -24326 -6725 -24093 -7680 -23842 -8617 -23574 -9586 -23256 -10507 -3626386 -3626420 23239 10523 23574 9587 23858 8617 24093 7663 24327 6742 24511 5756 24678 4818 24829 3865 24913 2911 24996 1975 25030 1003 25046 51 25030 -887 24979 -1857 24896 -2794 24795 -3765 24645 -4701 24494 -5672 24277 -6609 24059 -7562 23808 -8533 23508 -9487 23172 -10423 22838 -11377 22470 -12348 22035 -13284 21616 -14272 21131 -15191 20646 -16163 20094 -17115 19542 -18070 18957 -19040 53087 -56367 47717 -52084 42832 -47967 38498 -44020 34700 -40221 31404 -36608 28677 -33127 26485 -29848 24779 -26703 23624 -23741 23005 -20931 22922 -18270 23356 -15794 24327 -13469 25816 -11310 27858 -9336 30417 -7496 33495 -5839 37143 -4316 41276 -2978 45960 -1807 51180 -803 56919 66 63193 737 70003 1271 77347 1623 85195 1824 93593 1874 102528 1723 111981 1422 121969 1004 132493 351 38197 987 37712 2878 37177 4769 36607 6592 35972 8348 35286 10072 34583 11762 33796 13402 32994 14974 32107 16497 31220 18003 30250 19424 29212 20847 28175 22169 27088 23457 25916 24728z"/>
    <path class="fil1" d="M1796128 4664347l2588442 2588459 -870717 0 -1559600 -1559617 -45576 -44271 -43618 -46428 -41593 -48453 -39502 -50344 -37310 -52151 -35035 -53807 -32709 -55379 -30283 -56802 -27774 -58124 -25180 -59328 -22520 -60416 -19793 -61370 -16948 -62239 -14054 -62942 -11060 -63578 -8014 -64063 -4869 -64432 -1639 -64715 299352 0z"/>
    <path class="fil1" d="M1796128 4664347l2588426 2588459 44621 0c760326,0 1452824,-304689 1961815,-797836l-2449909 -2449927 -1594870 17 -28209 720 -27824 2141 -27455 3497 -27004 4869 -26569 6173 -26050 7446 -25515 8666 -24963 9888 -24360 11060 -23691 12197 -23039 13284 -22336 14339 -21566 15375 -20797 16363 -19993 17334 -19124 18236 -18254 19141 -17316 19977 -16363 20796 -15376 21583 -14355 22320 -13285 23038 -12180 23708 -11059 24344 -9888 24963 -8684 25514 -7445 26051 -6157 26568 -4869 27004 -3513 27456 -2125 27840 -719 28192 0 109204z"/>
    <path class="fil1" d="M3011956 4415941l2583239 2583256c88624,-40506 174756,-85596 258244,-134735l-2644994 -2645010 -9871 -8985 -10691 -7997 -11461 -6944 -12147 -5856 -12749 -4668 -13318 -3429 -13803 -2109 -14205 -719 -14204 719 -13803 2109 -13318 3429 -12766 4668 -12147 5856 -11444 6944 -10708 7997 -9854 8985 -8985 9854 -7997 10708 -6944 11461 -5856 12147 -4668 12749 -3429 13318 -2109 13803 -719 14204 719 14205 2109 13803 3429 13318 4668 12749 5856 12147 6944 11461 7997 10707 8985 9855z"/>
    <path class="fil1" d="M3559680 4664330l2234213 2234213c-405126,225451 -870566,354263 -1364718,354263l-44588 0 -2588459 -2588476 1763552 0z"/>
    <path class="fil1" d="M4043391 4266784l2265048 2265065c-500124,447723 -1159294,720957 -1879264,720957l-44621 0 -2588426 -2588459 1763552 0 25247 -368 24879 -1121 24477 -1857 24043 -2610 23591 -3363 23105 -4133 22587 -4885 22052 -5639 21499 -6408 20880 -7194 20262 -7964 19592 -8750 18923 -9520 18220 -10307 17467 -11076 16714 -11895 15928 -12666 15092 -13468 14238 -14289 13368 -15074 12448 -15895 11527 -16697 10558 -17518 9553 -18337 8566 -19157 7479 -19977 6442 -20813 5303 -21634 4183 -22486 3028 -23306 1841 -24160 619 -24996z"/>
    <path class="fil1" d="M3274365 4664347l2330367 2330383c-358396,165487 -756662,258076 -1175557,258076l-44605 0 -2588442 -2588459 1478237 0z"/>
    <path class="fil1" d="M4083679 5993126l1143818 1143818c-37963,11277 -76227,21784 -114825,31488l-1441513 -1441530 9854 9302 9955 9169 10022 9035 10089 8917 10156 8801 10206 8650 10256 8533 10306 8399 10340 8248 10373 8098 10407 7964 10407 7813 10423 7663 10440 7512 10424 7362 10423 7194 10407 7027 10390 6877 10323 6692 10273 6525 10155 6341 10056 6174 9904 5973 9771 5789 9587 5588 9403 5388 9169 5186 8968 4969 8683 4752 8416 4551 8131 4316 7813 4099 13971 7145 12966 6424 12231 5823 11695 5320 11394 4953 11343 4668 11494 4517 11896 4467z"/>
    <path class="fil1" d="M4279483 5861570l1191016 1191016c61653,-24678 122304,-51381 181749,-80175l-1534521 -1534538 -920 13669 -569 13670 -201 13669 134 13703 502 13669 836 13652 1205 13653 1556 13619 1907 13586 2259 13535 2627 13485 2978 13435 3313 13368 3681 13285 4048 13217 4384 13117 4752 13034 5103 12933 5454 12816 5822 12699 6174 12582 6508 12447 6877 12315 7244 12146 7580 12013 7964 11846 8298 11678 8667 11494 9018 11327 9369 11110 9721 10942 10089 10708 15376 15275z"/>
    <path class="fil1" d="M4869151 5955716l936337 936336c-107581,60516 -219411,114256 -334989,160534l-1191016 -1191016 15844 14489 16279 13753 16698 12983 17099 12214 17467 11461 17819 10691 18136 9955 18421 9168 18722 8399 18956 7646 19191 6877 19391 6123 19575 5338 19743 4601 19860 3814 19977 3045 20043 2293 20128 1522 20161 753 20177 -33 20161 -770 20128 -1556 20060 -2326 19994 -3095 19876 -3848 19760 -4635 19609 -5404 19424 -6173 19224 -6944 18990 -7713 18755 -8482z"/>
    <path class="fil1" d="M4366250 5188045l1603871 1603871c50979,-33412 100888,-68346 149525,-104903l-1350312 -1350329 -10858 -10323 -11076 -9955 -11294 -9570 -11477 -9219 -11695 -8851 -11879 -8483 -12047 -8114 -12247 -7747 -12397 -7361 -12532 -7011 -12699 -6659 -12849 -6274 -12967 -5906 -13100 -5521 -13201 -5170 -13318 -4802 -13435 -4433 -13519 -4066 -13585 -3698 -13686 -3312 -13753 -2945 -13803 -2593 -13854 -2226 -13903 -1840 -13937 -1472 -13970 -1121 -13988 -736 -14020 -352 -14004 0 -14004 368 -13987 753z"/>
    <path class="fil1" d="M4360896 5925198l1122201 1122218c-326071,132276 -681857,205390 -1053922,205390l-915322 0 -1559600 -1559617 47432 42028 49223 39653 50912 37143 52553 34516 54108 31805 55564 28962 56935 25983 58258 22905 59479 19709 60616 16397 61704 12933 62658 9403 63595 5722 64398 1924 987399 0 20278 -101 20228 -284 20194 -502 20144 -703 20094 -887 20044 -1087 19977 -1272 19943 -1472 19893 -1656 19827 -1874 19792 -2041 19726 -2226 19659 -2426 19626 -2610 19558 -2810 19492 -2962 19442 -3179 19391 -3346 19307 -3530 19258 -3731 19207 -3882 19124 -4082 19073 -4250 18990 -4417 18939 -4618 18873 -4785 18789 -4952 18739 -5137 18655 -5303 18588 -5471 18521 -5655 18438 -5823z"/>
    <path class="fil1" d="M4769334 5336684l1350312 1350329c-99817,75038 -204804,143502 -314158,205039l-936337 -936336 9119 -18472 8349 -18722 7562 -18989 6826 -19208 6057 -19408 5287 -19592 4517 -19742 3748 -19877 2995 -19977 2225 -20077 1456 -20111 686 -20160 -84 -20178 -853 -20161 -1606 -20111 -2393 -20077 -3145 -19977 -3932 -19876 -4701 -19743 -5472 -19592 -6223 -19408 -7011 -19190 -7780 -18990 -8549 -18722 -9336 -18471 -10089 -18153 -10875 -17836 -11645 -17484 -12414 -17132 -13201 -16731 -13971 -16313 -14740 -15878 -10624 -10674z"/>
    <path class="fil1" d="M5255404 2594600l1992835 1992851c-50043,894291 -521273,1680817 -1217250,2163407l-1107646 -1107645 48537 -35620 47449 -36993 46329 -38330 45173 -39636 44020 -40924 42798 -42163 41576 -43400 40305 -44588 39001 -45743 37695 -46880 36323 -47968 34951 -49072 33529 -50076 32073 -51114 30618 -52083 29112 -53038 27573 -53974 26017 -54861 24410 -55731 22805 -56534 21148 -57371 19458 -58124 17751 -58893 16012 -59596 14238 -60265 12431 -60935 10591 -61570 8750 -62139 6860 -62741 4936 -63244 2961 -63762 1004 -64247 0 -17 -2677 -105121 -7947 -103783 -13101 -102310 -18136 -100721 -22988 -98997 -27741 -97141 -32357 -95149 -36859 -93025 -41208 -90766 -45425 -88390 -49541 -85863 -53472 -83237 -57321 -80443 -61018 -77549 -64582 -74486z"/>
    <path class="fil1" d="M4923343 5643213l1107646 1107645c-72781,50478 -148037,97576 -225501,141194l-936337 -936336 9052 -18321 8282 -18588 7546 -18839 6776 -19057 6040 -19274 5270 -19442 4517 -19592 3781 -19726 3012 -19826 2259 -19910 1505 -19977 737 -20010 0 -20027 -770 -20010 -1523 -19994 -2292 -19910z"/>
    <path class="fil1" d="M4869151 5955716l936337 936336c-103666,58307 -211297,110274 -322391,155364l-1122201 -1122218 14472 8868 14707 8348 14907 7847 15092 7328 15292 6827 15443 6307 15610 5806 15743 5304 15878 4785 15995 4300 16079 3747 16195 3263 16263 2761 16329 2242 16380 1723 16430 1221 16447 703 16446 201 16464 -318 16446 -820 16413 -1355 16380 -1841 16346 -2359 16246 -2877 16196 -3397 16095 -3898 15995 -4417 15878 -4919 15744 -5454 15610 -5957 15459 -6458 15275 -6993z"/>
   </g>
   <g>
    <path class="fil2" d="M1536027 1294113l17 0c3848,-1858 7679,-3631 11561,-5388l16 0 11645 -5136 17 0 11728 -4902 17 -17c3915,-1590 7864,-3146 11795,-4651l34 -17c7897,-3028 15844,-5889 23808,-8600l34 -17 11979 -3915c229015,-72914 490303,-17032 667452,168281 344475,360404 352389,468386 579964,495289 144389,-150 358413,-4149 679649,-4149l96672 0 96672 0c1127889,0 2050690,922817 2050690,2050690l0 17c0,687663 -343036,1299082 -866434,1671615 14205,106058 -3948,215546 -54175,312503 -162090,77247 -355049,66673 -508272,-30518 -196339,62959 -405276,97090 -621809,97090l-987399 0c-691143,0 -1254912,-666799 -1254912,-1357941l299352 0 296005 0 1467547 0 0 -17 -1763552 0 0 -109203c0,-302531 247535,-550067 550083,-550067l1594886 0c409292,-669 743996,-335725 743996,-745167l0 0c0,-409860 -335323,-745201 -745184,-745201 -1471160,0 -1056749,-133480 -1653779,491140 -198882,208067 -503856,252990 -750086,135655 -125500,-242198 -89545,-547322 110592,-754218 72930,-75407 159647,-129432 252304,-161990l-101 -7479 0 0 101 -7496 -4334 -1522 0 -17 -4333 -1572 -4333 -1590 0 -17 -4300 -1639 -4317 -1657 0 -16 -4283 -1690 -4283 -1724 0 -16 -4266 -1740 -17 0 -4250 -1791 0 -16 -4250 -1824 -16 0 -4233 -1857 -17 0 -4216 -1874 -4216 -1924 -4217 -1958 0 0 -4199 -1974 -4166 -2008 -17 -16 -4166 -2041 -17 0 -4149 -2075 -4149 -2108 -17 -17 -4133 -2125 -4115 -2158 -17 -17 -4099 -2192 -4116 -2242 -4082 -2258 -17 0 -4049 -2292 -17 0 -4065 -2343 -4049 -2342 0 -17 -4016 -2376 -16 0 -4016 -2426 -17 0 -3998 -2442 -17 -17 -3965 -2476 -17 0 -3965 -2527 -17 0 -3965 -2526 0 -17 -3932 -2576 -3932 -2610 -17 0 -3915 -2627 0 -17 -3898 -2660 -17 0 -3881 -2711 -3865 -2743 -17 0 -3865 -2761 -3831 -2794 -17 0 -3815 -2828 -3814 -2861 0 -16 -3798 -2878 -3782 -2928 -3747 -2962 -3748 -2978 -3731 -3011 -3698 -3062 -3697 -3079 -3681 -3095 -3647 -3162 -3648 -3162 -3614 -3212 -3614 -3230 -3580 -3279 -3564 -3296 -3547 -3329 0 -17 -3513 -3346 -3514 -3397 -3497 -3430 -3480 -3446 0 -17 -3429 -3463 -3430 -3530 -9253 -9771 -9034 -9905 -8784 -10039 -8550 -10189 -8298 -10306c-2727,-3464 -5388,-6927 -8048,-10440l0 0c-2660,-3481 -5253,-7011 -7813,-10541 -2577,-3530 -5103,-7111 -7579,-10691 -2493,-3564 -4919,-7161 -7329,-10775l-16 0c-2410,-3631 -4785,-7261 -7094,-10909l-6860 -11009 -6626 -11092c-2175,-3731 -4283,-7462 -6374,-11210l-17 0 -6123 -11310 -17 0c-2008,-3765 -3965,-7596 -5889,-11394l-17 0 -5639 -11478 -5420 -11578 -5187 -11644 -4952 -11729 -4685 -11812c-1539,-3932 -3028,-7880 -4467,-11862l-17 0c-1456,-3965 -2844,-7947 -4216,-11946 -1372,-3982 -2711,-7981 -3982,-11996 -1305,-4016 -2543,-8048 -3748,-12063l-3514 -12114 -3262 -12180 -3028 -12214 -17 0c-987,-4082 -1874,-8164 -2777,-12263l-17 0 -2527 -12281 -16 0c-820,-4116 -1573,-8232 -2309,-12347l-17 0 -2058 -12365 -1840 -12397 -1590 -12432 -1355 -12447c-435,-4150 -803,-8299 -1138,-12465 -334,-4149 -619,-8315 -870,-12481l-652 -12499 -402 -12514 -167 -12498 50 -12499c50,-4166 184,-8332 318,-12498l552 -12498 787 -12481 1020 -12465 1238 -12448 1506 -12431 1740 -12397 1974 -12365c686,-4132 1422,-8248 2209,-12347 769,-4116 1589,-8215 2443,-12298l2677 -12263 16 0c920,-4083 1908,-8165 2911,-12214l3146 -12164 17 0 3379 -12130 17 0 3614 -12063 17 0c1238,-4015 2526,-7997 3865,-11996l0 0c1321,-3998 2693,-7964 4115,-11946l4334 -11879 16 0 4568 -11795 4802 -11729 17 0 5052 -11644 17 0 5270 -11578 17 0 5505 -11495 16 0 5756 -11393z"/>
    <g style="clip-path:url(#id0)">
     <g>
      <path id="1" class="fil0" d="M5530212 2876200l2455598 0 0 3382632 -7070388 0 0 -639628 2779177 0c1092487,0 1986343,-893856 1986343,-1986343l0 -16c0,-267546 -53740,-523130 -150730,-756645z"/>
      <path class="fil0" d="M1898940 2225279c-92657,32558 -179374,86583 -252304,161990 -184611,190851 -229517,465240 -136910,696764 217955,-61102 417874,-146949 584064,-254563 241663,-156519 411985,-359065 422341,-570813 10357,-211731 -139252,-432681 -301510,-583445 -162258,-150746 -337181,-231306 -537418,-292291 -53137,-16196 -108049,-31003 -162358,-43701l-468 1003 -4802 11729 -4584 11795 -4334 11879 -4115 11946 -3882 11996 -3631 12063 -3396 12130 -3146 12164 -2927 12214 -2677 12263 -2443 12298 -2209 12347 -1974 12365 -1740 12397 -1506 12431 -1238 12448 -1020 12465 -787 12481 -552 12498 -318 12498 -50 12499 167 12498 402 12514 652 12499 870 12481 1138 12465 1355 12447 1590 12432 1840 12397 2075 12365 2325 12347 2544 12281 2794 12263 3028 12214 3262 12180 3514 12114 3748 12063 3982 11996 4233 11946 4467 11862 4685 11812 4952 11729 5187 11644 5420 11578 5656 11478 5906 11394 6140 11310 6374 11210 6626 11092 6860 11009 7110 10909 7329 10775 7579 10691 7813 10541 8048 10440 8298 10306 8550 10189 8784 10039 9034 9905 9253 9771 3430 3530 3429 3480 3480 3446 3497 3430 3514 3397 3513 3363 3547 3329 3564 3296 3580 3279 3614 3230 3614 3212 3648 3162 3647 3162 3681 3095 3697 3079 3698 3062 3731 3011 3748 2978 3747 2962 3782 2928 3798 2894 3814 2861 3832 2828 3831 2794 3882 2761 3865 2743 3898 2711 3898 2677 3932 2627 3932 2610 3932 2593 3982 2526 3982 2527 3982 2493 4015 2442 4032 2426 4016 2393 4049 2342 4082 2343 4066 2292 4082 2258 4116 2242 4116 2209 4115 2158 4150 2142 4149 2108 4166 2075 4183 2057 4166 2008 4199 1974 4217 1958 4216 1924 4233 1874 4249 1857 4250 1840 4267 1791 4266 1756 4283 1724 4283 1706 4317 1657 4300 1656 4333 1590 4333 1589 4334 1522 -101 7496 101 7479z"/>
     </g>
    </g>
    <path class="fil3 str0" d="M1536027 1294113l17 0c3848,-1858 7679,-3631 11561,-5388l16 0 11645 -5136 17 0 11728 -4902 17 -17c3915,-1590 7864,-3146 11795,-4651l34 -17c7897,-3028 15844,-5889 23808,-8600l34 -17 11979 -3915c229015,-72914 490303,-17032 667452,168281 344475,360404 352389,468386 579964,495289 144389,-150 358413,-4149 679649,-4149l96672 0 96672 0c1127889,0 2050690,922817 2050690,2050690l0 17c0,687663 -343036,1299082 -866434,1671615 14205,106058 -3948,215546 -54175,312503 -162090,77247 -355049,66673 -508272,-30518 -196339,62959 -405276,97090 -621809,97090l-987399 0c-691143,0 -1254912,-666799 -1254912,-1357941l299352 0 296005 0 1467547 0 0 -17 -1763552 0 0 -109203c0,-302531 247535,-550067 550083,-550067l1594886 0c409292,-669 743996,-335725 743996,-745167l0 0c0,-409860 -335323,-745201 -745184,-745201 -1471160,0 -1056749,-133480 -1653779,491140 -198882,208067 -503856,252990 -750086,135655 -125500,-242198 -89545,-547322 110592,-754218 72930,-75407 159647,-129432 252304,-161990l-101 -7479 0 0 101 -7496 -4334 -1522 0 -17 -4333 -1572 -4333 -1590 0 -17 -4300 -1639 -4317 -1657 0 -16 -4283 -1690 -4283 -1724 0 -16 -4266 -1740 -17 0 -4250 -1791 0 -16 -4250 -1824 -16 0 -4233 -1857 -17 0 -4216 -1874 -4216 -1924 -4217 -1958 0 0 -4199 -1974 -4166 -2008 -17 -16 -4166 -2041 -17 0 -4149 -2075 -4149 -2108 -17 -17 -4133 -2125 -4115 -2158 -17 -17 -4099 -2192 -4116 -2242 -4082 -2258 -17 0 -4049 -2292 -17 0 -4065 -2343 -4049 -2342 0 -17 -4016 -2376 -16 0 -4016 -2426 -17 0 -3998 -2442 -17 -17 -3965 -2476 -17 0 -3965 -2527 -17 0 -3965 -2526 0 -17 -3932 -2576 -3932 -2610 -17 0 -3915 -2627 0 -17 -3898 -2660 -17 0 -3881 -2711 -3865 -2743 -17 0 -3865 -2761 -3831 -2794 -17 0 -3815 -2828 -3814 -2861 0 -16 -3798 -2878 -3782 -2928 -3747 -2962 -3748 -2978 -3731 -3011 -3698 -3062 -3697 -3079 -3681 -3095 -3647 -3162 -3648 -3162 -3614 -3212 -3614 -3230 -3580 -3279 -3564 -3296 -3547 -3329 0 -17 -3513 -3346 -3514 -3397 -3497 -3430 -3480 -3446 0 -17 -3429 -3463 -3430 -3530 -9253 -9771 -9034 -9905 -8784 -10039 -8550 -10189 -8298 -10306c-2727,-3464 -5388,-6927 -8048,-10440l0 0c-2660,-3481 -5253,-7011 -7813,-10541 -2577,-3530 -5103,-7111 -7579,-10691 -2493,-3564 -4919,-7161 -7329,-10775l-16 0c-2410,-3631 -4785,-7261 -7094,-10909l-6860 -11009 -6626 -11092c-2175,-3731 -4283,-7462 -6374,-11210l-17 0 -6123 -11310 -17 0c-2008,-3765 -3965,-7596 -5889,-11394l-17 0 -5639 -11478 -5420 -11578 -5187 -11644 -4952 -11729 -4685 -11812c-1539,-3932 -3028,-7880 -4467,-11862l-17 0c-1456,-3965 -2844,-7947 -4216,-11946 -1372,-3982 -2711,-7981 -3982,-11996 -1305,-4016 -2543,-8048 -3748,-12063l-3514 -12114 -3262 -12180 -3028 -12214 -17 0c-987,-4082 -1874,-8164 -2777,-12263l-17 0 -2527 -12281 -16 0c-820,-4116 -1573,-8232 -2309,-12347l-17 0 -2058 -12365 -1840 -12397 -1590 -12432 -1355 -12447c-435,-4150 -803,-8299 -1138,-12465 -334,-4149 -619,-8315 -870,-12481l-652 -12499 -402 -12514 -167 -12498 50 -12499c50,-4166 184,-8332 318,-12498l552 -12498 787 -12481 1020 -12465 1238 -12448 1506 -12431 1740 -12397 1974 -12365c686,-4132 1422,-8248 2209,-12347 769,-4116 1589,-8215 2443,-12298l2677 -12263 16 0c920,-4083 1908,-8165 2911,-12214l3146 -12164 17 0 3379 -12130 17 0 3614 -12063 17 0c1238,-4015 2526,-7997 3865,-11996l0 0c1321,-3998 2693,-7964 4115,-11946l4334 -11879 16 0 4568 -11795 4802 -11729 17 0 5052 -11644 17 0 5270 -11578 17 0 5505 -11495 16 0 5756 -11393z"/>
    <path class="fil3 str1" d="M4043374 4266784c0,271193 -212518,397563 -483678,397563l-1763568 0 0 -109204c0,-302530 247535,-550083 550083,-550083l1594870 -17"/>
    <path class="fil3 str1" d="M4366250 5188045c149191,-9921 301594,43417 413708,159313 161405,166892 190416,412989 89193,608358 -198614,94647 -443623,57471 -605044,-109421 -109488,-113219 -158058,-262879 -146380,-408405"/>
    <path class="fil4" d="M3278431 4874204c-3162,-62323 -3714,-136090 -3999,-185815l-67 -24042 -1478237 0 -299352 0c0,691142 563769,1357941 1254912,1357941l987399 0c117368,0 232478,-9988 344592,-29162 -32424,-11963 -58257,-23189 -96990,-43317 -40790,-21214 -95852,-52301 -151449,-90263 -55581,-37946 -111680,-82769 -164081,-132644 -52402,-49875 -101073,-104820 -142666,-159665 -41577,-54827 -76042,-109588 -106192,-166959 -30132,-57354 -55982,-117334 -76779,-178102 -20813,-60767 -36607,-122320 -47399,-178553 -10774,-56217 -16530,-107079 -19692,-169419z"/>
    <g style="clip-path:url(#id1)">
     <g>
      <g>
       <path id="1" class="fil5" d="M2223873 4926823l0 1339521 -106074 0 0 -1339521 106074 0z"/>
       <path class="fil5" d="M1251984 5253530l561494 0 0 -319830 106074 0 0 425905 -667568 0 0 -106075z"/>
       <path class="fil5" d="M2170836 5543764l452140 -67 -34 -135839 -224631 0 0 -470778 106075 0 0 364703 224163 0 50 347537 -557763 67 0 -105623z"/>
       <path class="fil5" d="M2675762 5422849l271428 -51 0 -485785 106058 0 0 591375 -377486 100 0 -105639z"/>
       <path class="fil5" d="M2499116 6003767l-1857 -291304 798873 0 0 106058 -692564 0 1171 184828 -105623 418z"/>
       <circle class="fil6" cx="1866512" cy="4933705" r="106160"/>
       <circle class="fil6" cx="2170837" cy="4926816" r="106160"/>
       <circle class="fil6" cx="2451347" cy="4926816" r="106160"/>
       <circle class="fil6" cx="3000216" cy="4926816" r="106160"/>
       <circle class="fil6" cx="3296133" cy="5765495" r="106160"/>
      </g>
     </g>
    </g>
    <path class="fil3 str2" d="M3278431 4874204c-3162,-62323 -3714,-136090 -3999,-185815l-67 -24042 -1478237 0 -299352 0c0,691142 563769,1357941 1254912,1357941l987399 0c117368,0 232478,-9988 344592,-29162 -32424,-11963 -58257,-23189 -96990,-43317 -40790,-21214 -95852,-52301 -151449,-90263 -55581,-37946 -111680,-82769 -164081,-132644 -52402,-49875 -101073,-104820 -142666,-159665 -41577,-54827 -76042,-109588 -106192,-166959 -30132,-57354 -55982,-117334 -76779,-178102 -20813,-60767 -36607,-122320 -47399,-178553 -10774,-56217 -16530,-107079 -19692,-169419z"/>
    <path class="fil6" d="M3110200 4178745c76729,0 138952,62206 138952,138951 0,76746 -62223,138952 -138952,138952 -76745,0 -138951,-62206 -138951,-138952 0,-76745 62206,-138951 138951,-138951z"/>
   </g>
  </g>
 </g>
</svg>
